<mxfile host="app.diagrams.net" agent="Mozilla/5.0 (Windows NT 10.0; Win64; x64) AppleWebKit/537.36 (KHTML, like Gecko) Chrome/137.0.0.0 Safari/537.36" version="27.1.4">
  <diagram name="第 1 页" id="bGDG18CI6xf1ACqpi-us">
    <mxGraphModel dx="902" dy="464" grid="1" gridSize="10" guides="1" tooltips="1" connect="1" arrows="1" fold="1" page="1" pageScale="1" pageWidth="827" pageHeight="1169" math="0" shadow="0">
      <root>
        <mxCell id="0" />
        <mxCell id="1" parent="0" />
        <mxCell id="lpmT9Wt_WTj7gqoyoJER-2" style="edgeStyle=orthogonalEdgeStyle;rounded=0;orthogonalLoop=1;jettySize=auto;html=1;entryX=0.5;entryY=0;entryDx=0;entryDy=0;" edge="1" parent="1" source="lpmT9Wt_WTj7gqoyoJER-1" target="lpmT9Wt_WTj7gqoyoJER-3">
          <mxGeometry relative="1" as="geometry">
            <mxPoint x="170" y="280" as="targetPoint" />
            <Array as="points">
              <mxPoint x="170" y="265" />
              <mxPoint x="171" y="265" />
            </Array>
          </mxGeometry>
        </mxCell>
        <mxCell id="lpmT9Wt_WTj7gqoyoJER-1" value="CNN&amp;nbsp;" style="rounded=0;whiteSpace=wrap;html=1;" vertex="1" parent="1">
          <mxGeometry x="111" y="210" width="120" height="40" as="geometry" />
        </mxCell>
        <mxCell id="lpmT9Wt_WTj7gqoyoJER-6" style="edgeStyle=orthogonalEdgeStyle;rounded=0;orthogonalLoop=1;jettySize=auto;html=1;entryX=0.5;entryY=0;entryDx=0;entryDy=0;" edge="1" parent="1" source="lpmT9Wt_WTj7gqoyoJER-3" target="lpmT9Wt_WTj7gqoyoJER-4">
          <mxGeometry relative="1" as="geometry" />
        </mxCell>
        <mxCell id="lpmT9Wt_WTj7gqoyoJER-3" value="图像特征" style="rounded=0;whiteSpace=wrap;html=1;" vertex="1" parent="1">
          <mxGeometry x="110" y="290" width="120" height="50" as="geometry" />
        </mxCell>
        <mxCell id="lpmT9Wt_WTj7gqoyoJER-4" value="embedding layer" style="rounded=0;whiteSpace=wrap;html=1;" vertex="1" parent="1">
          <mxGeometry x="110" y="370" width="120" height="30" as="geometry" />
        </mxCell>
      </root>
    </mxGraphModel>
  </diagram>
</mxfile>
